Coordinates
version=1
nRows=60
nColumns=12
inDegrees=yes

Units are S.I. units (second, meters, Newtons, ...)
Angles are in degrees

endheader
time	SC_y	SC_z	SC_x	AC_y	AC_z	AC_x	GH_y	GH_z	GH_yy	EL_x	PS_y
       0.0              -38.03          33.78          15.05          44.12         -14.37          11.51          159.7          77.56         -58.82           55.6          119.5
   0.00695              -38.03          33.77          15.05          44.12         -14.37          11.51          159.7          77.55         -58.82           55.6          119.5
    0.0139              -38.03          33.77          15.05          44.11         -14.36           11.5          159.7          77.54         -58.81           55.6          119.5
   0.02085              -38.04          33.76          15.05          44.11         -14.36           11.5          159.7          77.52          -58.8           55.6          119.5
    0.0278              -38.04          33.76          15.04          44.11         -14.36          11.49          159.6          77.51         -58.79           55.6          119.5
   0.03475              -38.04          33.75          15.04          44.11         -14.36          11.49          159.6          77.49         -58.79           55.6          119.5
    0.0417              -38.04          33.74          15.04           44.1         -14.36          11.48          159.6          77.47         -58.78           55.6          119.5
   0.04865              -38.05          33.74          15.04           44.1         -14.36          11.48          159.6          77.45         -58.77           55.6          119.4
    0.0556              -38.05          33.73          15.04           44.1         -14.36          11.47          159.5          77.44         -58.76           55.6          119.4
   0.06255              -38.06          33.72          15.03           44.1         -14.35          11.46          159.5          77.41         -58.74           55.6          119.4
    0.0695              -38.06          33.71          15.03          44.09         -14.35          11.45          159.5          77.39         -58.73           55.6          119.4
   0.07645              -38.06           33.7          15.03          44.09         -14.35          11.44          159.4          77.37         -58.72           55.6          119.4
    0.0834              -38.07          33.69          15.03          44.09         -14.35          11.44          159.4          77.34          -58.7           55.6          119.4
   0.09035              -38.07          33.68          15.02          44.08         -14.34          11.43          159.4          77.31         -58.69           55.6          119.4
    0.0973              -38.08          33.67          15.02          44.08         -14.34          11.41          159.3          77.28         -58.67           55.6          119.4
    0.1043              -38.09          33.66          15.02          44.07         -14.34           11.4          159.3          77.25         -58.65          55.61          119.4
    0.1112              -38.09          33.64          15.01          44.07         -14.34          11.39          159.2          77.21         -58.63          55.61          119.4
    0.1182               -38.1          33.63          15.01          44.06         -14.33          11.38          159.2          77.17         -58.61          55.61          119.4
    0.1251              -38.11          33.61           15.0          44.06         -14.33          11.36          159.1          77.13         -58.59          55.61          119.4
    0.1321              -38.12          33.59           15.0          44.05         -14.32          11.34          159.0          77.08         -58.56          55.61          119.3
     0.139              -38.13          33.57          14.99          44.04         -14.32          11.33          159.0          77.03         -58.53          55.61          119.3
     0.146              -38.14          33.55          14.99          44.03         -14.31          11.31          158.9          76.97          -58.5          55.61          119.3
    0.1529              -38.15          33.52          14.98          44.03         -14.31          11.28          158.8          76.91         -58.47          55.61          119.3
    0.1599              -38.16           33.5          14.97          44.02          -14.3          11.26          158.7          76.84         -58.43          55.61          119.3
    0.1668              -38.18          33.47          14.96           44.0          -14.3          11.23          158.6          76.76         -58.39          55.61          119.3
    0.1738              -38.19          33.43          14.96          43.99         -14.29           11.2          158.4          76.67         -58.34          55.61          119.2
    0.1807              -38.21          33.39          14.95          43.98         -14.28          11.17          158.3          76.58         -58.29          55.61          119.2
    0.1877              -38.23          33.35          14.93          43.96         -14.27          11.13          158.1          76.47         -58.23          55.61          119.2
    0.1946              -38.25           33.3          14.92          43.95         -14.26          11.09          158.0          76.34         -58.16          55.62          119.1
    0.2016              -38.28          33.25          14.91          43.93         -14.25          11.04          157.8           76.2         -58.08          55.62          119.1
    0.2085              -38.31          33.19          14.89           43.9         -14.23          10.98          157.5          76.04         -57.99          55.62          119.1
    0.2155              -38.34          33.11          14.87          43.88         -14.22          10.92          157.3          75.86         -57.89          55.62          119.0
    0.2224              -38.38          33.03          14.85          43.85          -14.2          10.84          157.0          75.64         -57.78          55.62          119.0
    0.2294              -38.43          32.93          14.82          43.81         -14.18          10.76          156.6           75.4         -57.64          55.63          118.9
    0.2363              -38.48          32.82          14.79          43.77         -14.15          10.66          156.2          75.11         -57.49          55.63          118.8
    0.2433              -38.54          32.69          14.76          43.72         -14.12          10.54          155.7          74.77          -57.3          55.63          118.7
    0.2502              -38.62          32.53          14.71          43.67         -14.08           10.4          155.1          74.36         -57.08          55.64          118.6
    0.2572              -38.71          32.34          14.66           43.6         -14.04          10.23          154.4          73.87         -56.81          55.64          118.5
    0.2641              -38.82          32.11           14.6          43.51         -13.99          10.02          153.6          73.29         -56.49          55.65          118.3
    0.2711              -38.95          31.84          14.52          43.41         -13.92          9.775          152.5          72.57          -56.1          55.66          118.1
     0.278              -39.11          31.49          14.43          43.29         -13.85          9.466          151.2          71.68         -55.62          55.67          117.9
     0.285              -39.32          31.06          14.32          43.13         -13.75          9.082          149.7          70.58         -55.02          55.68          117.6
    0.2919              -39.57          30.52          14.17          42.94         -13.63          8.598          147.6          69.19         -54.26           55.7          117.2
    0.2989               -39.9          29.83          13.98          42.69         -13.47          7.982          145.1          67.42         -53.29          55.72          116.7
    0.3058              -40.32          28.95          13.74          42.37         -13.27          7.194          141.8          65.15         -52.06          55.74          116.1
    0.3128              -40.85          27.82          13.44          41.96         -13.01          6.182          137.6          62.25         -50.47          55.77          115.3
    0.3197              -41.54          26.38          13.05          41.43         -12.68           4.89          132.3          58.53         -48.45          55.82          114.3
    0.3267               -42.4          24.56          12.56          40.77         -12.27          3.266          125.6          53.87          -45.9          55.87          113.1
    0.3336              -43.45          22.35          11.96          39.97         -11.77          1.286          117.4          48.18          -42.8          55.93          111.5
    0.3406              -44.67          19.78          11.27          39.04         -11.18         -1.009          107.8          41.58          -39.2          56.01          109.7
    0.3475              -45.98          17.01          10.52          38.03         -10.55         -3.493          97.55          34.44         -35.31          56.09          107.8
    0.3545               -47.3          14.23          9.767          37.02         -9.917         -5.978          87.26           27.3         -31.42          56.17          105.9
    0.3614              -48.52          11.66          9.074          36.09         -9.333         -8.272          77.75          20.71         -27.82          56.24          104.1
    0.3684              -49.57          9.451          8.476          35.29          -8.83         -10.25          69.55          15.02         -24.72          56.31          102.5
    0.3753              -50.43          7.635          7.985          34.63         -8.416         -11.88          62.82          10.36         -22.17          56.36          101.3
    0.3823              -51.12          6.191          7.595          34.11         -8.088         -13.17          57.46          6.643         -20.15           56.4          100.3
    0.3892              -51.65           5.06          7.289           33.7          -7.83         -14.18          53.27          3.737         -18.56          56.44          99.47
    0.3962              -52.07          4.179          7.051          33.38          -7.63         -14.97          50.01          1.472         -17.33          56.46          98.86
    0.4031               -52.4          3.491          6.865          33.13         -7.473         -15.58          47.46        -0.2975         -16.36          56.48          98.38
    0.4101              -52.65           2.95          6.719          32.93          -7.35         -16.07          45.45         -1.689          -15.6           56.5          98.01
